<?xml version="1.0" standalone="no"?>
<!DOCTYPE svg PUBLIC "-//W3C//DTD SVG 20010904//EN"
 "http://www.w3.org/TR/2001/REC-SVG-20010904/DTD/svg10.dtd">
<svg version="1.0" xmlns="http://www.w3.org/2000/svg"
 width="980.000000pt" height="980.000000pt" viewBox="0 0 980.000000 980.000000"
 preserveAspectRatio="xMidYMid meet">

<g transform="translate(0.000000,980.000000) scale(0.100000,-0.100000)"
fill="#000000" stroke="none">
<path d="M2985 6903 c-92 -48 -129 -146 -90 -241 11 -26 272 -294 878 -899
l862 -863 -866 -867 c-940 -941 -898 -894 -886 -995 14 -119 141 -190 255
-143 26 11 294 272 900 878 l862 862 863 -862 c605 -606 873 -867 899 -878 69
-28 165 -9 210 41 46 52 60 136 33 202 -11 26 -272 294 -878 900 l-862 862
862 863 c606 605 867 873 878 899 47 115 -23 240 -143 255 -101 12 -54 54
-995 -886 l-867 -866 -863 862 c-605 606 -873 867 -899 878 -48 19 -115 19
-153 -2z"/>
</g>
</svg>
