<?xml version="1.0" standalone="no"?>
<!DOCTYPE svg PUBLIC "-//W3C//DTD SVG 20010904//EN"
 "http://www.w3.org/TR/2001/REC-SVG-20010904/DTD/svg10.dtd">
<svg version="1.0" xmlns="http://www.w3.org/2000/svg"
 width="422.000000pt" height="408.000000pt" viewBox="0 0 422.000000 408.000000"
 preserveAspectRatio="xMidYMid meet">

<g transform="translate(0.000000,408.000000) scale(0.100000,-0.100000)"
fill="#000000" stroke="none">
<path d="M1929 4027 c-185 -63 -301 -238 -364 -552 -14 -67 -25 -138 -25 -157
0 -19 -3 -37 -6 -41 -4 -3 -37 9 -74 28 -116 58 -340 151 -455 188 -253 81
-399 88 -531 22 -130 -64 -221 -191 -279 -390 -25 -87 -59 -269 -53 -286 2 -4
39 19 83 52 270 203 438 261 810 279 116 6 272 9 349 8 l138 -3 -6 -65 c-3
-36 -6 -117 -6 -180 0 -63 -4 -110 -8 -104 -11 17 -102 26 -151 15 -31 -7 -69
-6 -122 2 -79 11 -123 6 -196 -24 -29 -12 -37 -11 -65 6 -26 15 -52 19 -118
20 -132 0 -166 -22 -189 -126 -18 -81 -101 -611 -103 -658 -4 -74 16 -108 73
-128 27 -10 49 -24 49 -31 0 -7 7 -15 15 -18 11 -5 15 -24 15 -80 0 -41 4 -74
8 -74 5 0 -11 -66 -34 -147 -24 -82 -43 -158 -44 -170 0 -13 -5 -23 -11 -23
-18 0 -144 135 -215 230 -79 106 -164 248 -243 408 -34 67 -64 122 -68 122 -3
0 -3 -84 1 -187 22 -588 97 -883 266 -1054 82 -83 147 -111 271 -117 102 -5
192 11 362 65 l117 37 -7 95 c-10 125 -10 928 0 963 4 17 12 25 20 22 20 -7
68 14 99 43 17 16 33 23 43 19 9 -3 14 -10 10 -15 -3 -6 11 -21 32 -35 41 -28
84 -33 143 -15 30 9 47 9 81 -3 25 -8 90 -16 149 -17 88 -2 115 1 159 19 l54
21 60 -21 c34 -11 69 -20 79 -20 16 0 18 -10 18 -87 0 -100 7 -133 26 -133 17
0 26 66 22 150 -4 60 -4 58 -6 -22 -2 -71 -5 -88 -17 -88 -12 0 -15 17 -15 90
l0 90 26 0 c15 0 53 12 85 26 53 24 62 25 90 14 17 -7 37 -19 45 -27 11 -12
22 -11 72 1 45 12 67 13 97 5 23 -7 59 -8 85 -4 25 4 95 8 155 10 61 1 118 5
128 10 22 9 35 -1 19 -17 -15 -15 -16 -28 -2 -28 6 0 10 7 10 15 0 8 7 15 15
15 30 0 73 30 94 65 24 42 58 45 77 8 30 -62 88 -86 145 -62 34 13 65 69 54
97 -7 19 0 13 128 -102 48 -43 89 -77 91 -75 2 2 -26 56 -61 119 -124 220
-203 377 -203 404 0 52 -41 280 -56 312 -22 47 -59 68 -121 68 l-53 1 -122
215 c-172 304 -327 563 -430 722 -49 76 -87 142 -83 148 4 6 32 25 62 42 l55
31 -58 19 c-226 72 -368 85 -485 45z m-49 -1227 c81 -23 84 -24 52 -32 -20 -5
-40 -5 -52 2 -18 10 -20 7 -21 -32 -1 -24 -1 -46 0 -50 0 -5 -45 -8 -102 -8
l-102 0 3 -95 3 -95 80 0 80 0 -3 -52 -3 -53 -80 -3 -80 -3 3 -109 3 -110 101
0 101 0 -7 -37 c-3 -21 -6 -46 -6 -55 0 -16 -14 -18 -155 -18 l-155 0 0 370 0
370 158 2 157 2 -154 3 c-144 3 -155 2 -173 -17 -21 -22 -57 -27 -60 -7 -2 6
-5 -152 -8 -353 l-5 -365 -59 0 -59 0 -66 252 -66 253 -3 -256 -2 -255 -53 3
-52 3 -3 368 -2 367 74 0 73 0 42 -162 c74 -285 70 -282 70 -46 l1 206 63 5
c34 3 87 12 117 21 79 22 240 16 350 -14z m283 -27 c42 -25 65 -67 73 -136 l7
-57 -55 0 -55 0 -6 40 c-7 54 -23 72 -61 68 -21 -2 -35 -11 -45 -29 -27 -48
-2 -99 93 -193 98 -97 117 -129 124 -213 11 -143 -72 -227 -205 -207 -82 12
-123 65 -137 177 l-6 47 60 0 60 0 0 -44 c0 -49 19 -76 51 -76 54 0 77 46 58
115 -8 27 -35 62 -95 122 -98 96 -123 143 -124 226 0 93 37 156 105 177 42 13
121 4 158 -17z m-1182 -348 c32 -198 58 -364 59 -368 0 -4 -26 -7 -57 -5 l-58
3 -10 70 -10 70 -67 3 -66 3 -9 -73 -8 -73 -52 -3 c-38 -2 -53 1 -53 10 -1 7
25 174 57 371 l58 358 79 -3 79 -3 58 -360z m1489 353 c0 -15 71 -502 74 -505
1 -1 17 105 35 235 18 130 35 247 38 260 5 20 10 22 84 22 l79 0 0 -370 0
-370 -55 0 -55 0 -1 263 c-1 144 -4 251 -6 237 -15 -94 -73 -481 -73 -489 0
-6 -21 -11 -50 -11 -27 0 -50 2 -50 4 0 12 -80 519 -82 521 -2 2 -2 -116 0
-261 l3 -265 -53 3 -53 3 -3 355 c-1 195 0 361 3 367 6 17 165 18 165 1z m644
0 c2 -7 27 -161 56 -343 28 -181 54 -342 57 -357 l6 -28 -60 0 -60 0 -9 73 -9
72 -66 3 -67 3 -6 -58 c-11 -93 -11 -93 -67 -93 -42 0 -49 3 -49 20 0 11 22
156 49 322 27 167 53 324 56 351 l7 47 79 0 c55 0 81 -4 83 -12z m-1280 -210
c18 -25 21 -74 7 -83 -5 -3 -12 -1 -16 5 -3 5 -20 10 -36 10 -43 0 -69 17 -69
45 0 47 86 64 114 23z m396 -88 c21 -21 25 -46 10 -70 -7 -12 -13 -12 -33 -1
-14 7 -31 24 -38 38 -12 22 -11 27 6 39 25 18 31 18 55 -6z m-291 -117 l45
-47 -51 -22 c-30 -14 -63 -38 -82 -63 -39 -49 -71 -60 -107 -37 -20 14 -24 24
-22 49 3 28 11 36 59 58 44 22 59 35 74 68 10 23 23 41 28 41 6 0 31 -21 56
-47z m-1159 -428 c0 -8 -7 -15 -15 -15 -12 0 -15 -15 -15 -75 0 -60 -3 -75
-15 -75 -12 0 -15 15 -15 75 0 60 -3 75 -15 75 -8 0 -15 7 -15 15 0 11 12 15
45 15 33 0 45 -4 45 -15z m21 -12 c-12 -20 -14 -14 -5 12 4 9 9 14 11 11 3 -2
0 -13 -6 -23z m249 7 c0 -5 -11 -10 -25 -10 -20 0 -25 -5 -25 -25 0 -18 5 -25
20 -25 11 0 20 -4 20 -10 0 -5 -9 -10 -20 -10 -16 0 -20 -7 -20 -30 0 -25 4
-30 25 -30 14 0 25 -4 25 -10 0 -5 -18 -10 -40 -10 l-40 0 0 85 0 85 40 0 c22
0 40 -4 40 -10z m-274 -71 c-13 -28 -15 -30 -16 -11 0 13 6 29 13 36 18 21 19
13 3 -25z"/>
<path d="M817 2512 c-10 -75 -20 -154 -23 -174 l-7 -38 52 0 51 0 -5 38 c-3
20 -14 97 -25 170 -10 74 -20 136 -22 138 -2 1 -12 -59 -21 -134z"/>
<path d="M3007 2517 c-10 -73 -21 -151 -24 -174 l-6 -43 52 0 52 0 -6 33 c-3
17 -14 95 -25 171 -11 76 -21 140 -23 142 -1 2 -11 -56 -20 -129z"/>
<path d="M2818 3743 c419 -555 791 -1182 900 -1516 l39 -118 94 93 c158 156
259 308 275 416 13 85 -33 220 -117 343 -24 35 -88 111 -143 168 -222 228
-519 432 -921 632 -109 54 -203 99 -207 99 -5 0 31 -53 80 -117z"/>
<path d="M132 2785 c0 -16 2 -22 5 -12 2 9 2 23 0 30 -3 6 -5 -1 -5 -18z"/>
<path d="M123 2680 c0 -25 2 -35 4 -22 2 12 2 32 0 45 -2 12 -4 2 -4 -23z"/>
<path d="M114 2475 c0 -55 1 -76 3 -47 2 29 2 74 0 100 -2 26 -3 2 -3 -53z"/>
<path d="M114 2260 c0 -58 1 -81 3 -52 2 28 2 76 0 105 -2 28 -3 5 -3 -53z"/>
<path d="M1547 1913 c-17 -17 -6 -34 20 -31 36 4 45 38 10 38 -13 0 -27 -3
-30 -7z"/>
<path d="M2325 1909 c-8 -12 34 -61 45 -54 4 3 10 13 13 24 3 14 0 17 -14 14
-13 -4 -19 0 -19 11 0 18 -15 21 -25 5z"/>
<path d="M2832 1858 l2 -63 5 50 5 50 6 -50 7 -50 1 63 c2 49 -1 62 -13 62
-12 0 -15 -13 -13 -62z"/>
<path d="M1784 1870 c21 -133 40 -169 64 -122 12 21 35 153 29 159 -3 2 -10
-27 -17 -66 -10 -58 -15 -71 -30 -71 -15 0 -20 13 -30 70 -6 39 -14 70 -17 70
-3 0 -3 -18 1 -40z"/>
<path d="M3082 1845 c-2 -79 5 -118 22 -112 17 6 19 37 2 37 -12 0 -16 16 -19
73 l-3 72 -2 -70z"/>
<path d="M3142 1890 c0 -14 2 -19 5 -12 2 6 2 18 0 25 -3 6 -5 1 -5 -13z"/>
<path d="M1820 1890 c0 -5 5 -10 11 -10 5 0 7 5 4 10 -3 6 -8 10 -11 10 -2 0
-4 -4 -4 -10z"/>
<path d="M2890 1841 c0 -71 -32 -100 -72 -64 -16 14 -18 14 -18 0 0 -39 56
-61 80 -32 13 15 28 145 16 145 -3 0 -6 -22 -6 -49z"/>
<path d="M2290 1868 c0 -8 9 -25 20 -38 11 -13 20 -27 20 -32 0 -4 5 -8 10 -8
20 0 9 37 -20 65 -21 20 -30 24 -30 13z"/>
<path d="M3116 1840 c11 -59 30 -105 45 -105 20 0 23 33 3 37 -10 2 -25 23
-36 53 -14 38 -16 42 -12 15z"/>
<path d="M1540 1824 c0 -10 7 -14 22 -12 32 5 35 28 4 28 -17 0 -26 -5 -26
-16z"/>
<path d="M2381 1797 c-1 -9 -12 -23 -26 -29 -21 -9 -28 -8 -45 7 -16 14 -20
15 -20 3 0 -27 25 -50 50 -46 26 3 55 49 47 71 -3 7 -6 4 -6 -6z"/>
<path d="M1242 1754 c4 -22 64 -32 81 -15 14 14 9 18 -41 26 -39 6 -43 5 -40
-11z"/>
<path d="M1512 1754 c4 -22 64 -32 81 -15 14 14 9 18 -41 26 -39 6 -43 5 -40
-11z"/>
<path d="M2572 1753 c2 -10 10 -18 18 -18 8 0 16 8 18 18 2 12 -3 17 -18 17
-15 0 -20 -5 -18 -17z"/>
<path d="M1520 1684 c-112 -49 -161 -176 -126 -327 14 -61 14 -75 2 -125 -16
-61 -21 -111 -18 -179 2 -34 6 -43 20 -43 10 0 26 -17 40 -42 30 -58 80 -90
147 -96 77 -6 116 4 174 43 60 41 66 42 86 12 18 -27 55 -47 89 -47 37 0 66
31 80 85 l12 50 55 -3 c97 -6 127 -18 155 -65 33 -53 51 -67 87 -67 48 0 63
16 102 106 35 82 37 91 27 138 l-9 51 -2 -52 c-1 -52 -2 -53 -31 -53 l-30 0 0
-65 0 -65 -57 0 -58 0 3 65 4 65 -110 0 -109 0 -5 52 c-5 48 2 68 102 302
l106 251 36 -3 c19 -1 46 2 59 7 20 8 14 10 -33 10 -52 1 -62 -2 -96 -34 -29
-25 -49 -60 -77 -127 -21 -51 -42 -99 -48 -105 -6 -9 -6 -13 1 -13 6 0 -2 -28
-18 -62 -15 -35 -24 -65 -19 -68 4 -3 -3 -36 -16 -73 -14 -37 -25 -80 -25 -95
0 -44 -11 -76 -21 -60 -5 8 -9 -12 -9 -49 l0 -63 -60 0 -60 0 0 55 c0 43 -3
53 -15 49 -16 -6 -19 3 -34 110 -7 47 -7 75 0 88 13 25 22 106 23 219 1 79 -1
90 -29 134 -42 68 -113 105 -199 105 -33 -1 -77 -8 -96 -16z m195 -23 c55 -32
75 -74 75 -163 0 -85 -16 -139 -48 -159 -19 -12 -19 -13 9 -36 37 -32 52 -90
47 -183 -8 -128 -52 -179 -162 -187 -49 -4 -72 -1 -109 15 -68 30 -87 74 -87
197 0 103 13 145 51 166 21 11 21 11 -4 37 -35 37 -47 73 -47 142 0 73 23 134
60 160 55 39 156 44 215 11z"/>
<path d="M1582 1564 c-19 -13 -22 -24 -22 -83 0 -83 13 -104 60 -99 46 4 62
35 57 112 -5 80 -42 108 -95 70z"/>
<path d="M1571 1244 c-16 -21 -21 -41 -21 -88 0 -82 15 -110 62 -114 52 -4 68
22 68 115 0 60 -4 77 -20 93 -28 28 -64 25 -89 -6z m70 -136 c-10 -27 -41 -37
-41 -14 0 14 25 35 42 36 4 0 4 -10 -1 -22z"/>
<path d="M2380 1430 l-1 -250 33 0 c24 0 29 3 19 9 -20 13 -28 125 -11 155 8
16 10 61 6 152 -6 159 -6 159 -28 173 -16 10 -17 -6 -18 -239z"/>
<path d="M2211 1327 c-28 -73 -51 -136 -51 -140 0 -4 25 -7 55 -7 l55 0 0 140
c0 77 -2 140 -4 140 -1 0 -26 -60 -55 -133z"/>
</g>
</svg>
